<svg xmlns="http://www.w3.org/2000/svg" xmlns:xlink="http://www.w3.org/1999/xlink" width="32" height="32" version="1.1" viewBox="0 0 32 32"><title>project</title><desc>Created with Sketch.</desc><g id="project" fill="none" fill-rule="evenodd" stroke="none" stroke-width="1"><path id="path98" fill="#444" fill-rule="nonzero" d="M16.6800093,11.9999963 L25.4399919,11.9999963 L25.4399919,14.0399938 L16.6800093,14.0399938 L16.6800093,11.9999963 Z M6.8400114,11.9999963 L13.8000002,11.9999963 L13.8000002,14.0399938 L6.8400114,14.0399938 L6.8400114,11.9999963 Z M10.76,16.9199934 L19.2799961,16.9199934 L19.2799961,18.9199931 L10.76,18.9199931 L10.76,16.9199934 Z M7.11999562,21.4799917 L14.3599876,21.4799917 L14.3599876,23.3999902 L7.11999562,23.3999902 L7.11999562,21.4799917 Z M4,7 L14.0000079,7 L14.0000079,8.91999848 L4,8.91999848 L4,7 Z M22.200003,16.9199934 L28,16.9199934 L28,18.9199931 L22.200003,18.9199931 L22.200003,16.9199934 Z"/></g></svg>